<svg id="Layer_1" data-name="Layer 1" xmlns="http://www.w3.org/2000/svg" viewBox="0 0 512 512"><defs><style>.cls-1{fill:#e6e9ed;}.cls-2{fill:#d7dadd;}.cls-3{fill:#97a1af;}.cls-4{fill:#c4cace;}.cls-5{fill:#28bde5;}.cls-6{fill:#6b7175;}.cls-7{opacity:0.2;}.cls-8{fill:#fff;}</style></defs><title>cooker-flat</title><path class="cls-1" d="M480.78,137.37H31.22V468.29A43.71,43.71,0,0,0,74.93,512H437.07a43.71,43.71,0,0,0,43.71-43.71Z"/><path class="cls-2" d="M437.07,0H74.93A43.71,43.71,0,0,0,31.22,43.71v93.66H480.78V43.71A43.71,43.71,0,0,0,437.07,0Z"/><circle class="cls-3" cx="181.07" cy="68.68" r="12.49"/><circle class="cls-3" cx="231.02" cy="68.68" r="12.49"/><circle class="cls-3" cx="280.98" cy="68.68" r="12.49"/><circle class="cls-3" cx="330.93" cy="68.68" r="12.49"/><path class="cls-4" d="M418.34,193.56H93.66a12.49,12.49,0,1,1,0-25H418.34a12.49,12.49,0,1,1,0,25Z"/><rect class="cls-5" x="93.66" y="231.02" width="324.68" height="218.54" rx="12.49" ry="12.49"/><path class="cls-6" d="M405.85,243.51V437.07H106.15V243.51H405.85m0-25H106.15a25,25,0,0,0-25,25V437.07a25,25,0,0,0,25,25H405.85a25,25,0,0,0,25-25V243.51a25,25,0,0,0-25-25Z"/><g class="cls-7"><path class="cls-8" d="M303.77,243.51,182.82,437.07h42.71L346.41,243.51Zm-197.62,0V437.07h41.15L268.18,243.51Z"/></g></svg>