<svg height="512" viewBox="0 0 64 64" width="512" xmlns="http://www.w3.org/2000/svg"><g id="Flat"><g id="Color"><g><path d="m57 36h-3a1 1 0 0 1 0-2h3a1 1 0 0 1 0 2z" fill="#aeb6b7"/><path d="m16 57h37v4h-37z" fill="#e6f0f0"/><path d="m25 59a2.99 2.99 0 0 1 -2.816-2h-6.184v4h37v-2z" fill="#d0d8da"/><path d="m19 54a2 2 0 0 0 -3.384-1.439 3 3 0 0 0 -1.59-1.369 2.957 2.957 0 0 0 .974-2.192 2.989 2.989 0 0 0 -1.56-2.617 1.986 1.986 0 0 0 -.44-3.106v-.277a2 2 0 0 1 2-2h2v-10a10.994 10.994 0 0 0 -10.364 7.342 2.972 2.972 0 0 0 -.84 4.679 1.994 1.994 0 0 0 .204 3.979v.277a1.986 1.986 0 0 0 -.44 3.106 2.99 2.99 0 1 0 3.661 4.617h.963a2.975 2.975 0 0 0 5.071.959 1.994 1.994 0 0 0 3.745-.959 1.966 1.966 0 0 0 -.071-.5 1.966 1.966 0 0 0 .071-.5z" fill="#f89c8d"/><path d="m19 54a2 2 0 0 0 -3.384-1.439 3 3 0 0 0 -1.59-1.369 2.957 2.957 0 0 0 .974-2.192 2.989 2.989 0 0 0 -1.56-2.617 1.986 1.986 0 0 0 -.44-3.106v-.277a2 2 0 0 1 2-2h2v-10a10.945 10.945 0 0 0 -3.3.51l-.316 1.579a30.614 30.614 0 0 1 -3.159 7.992 2 2 0 0 0 -.225.919v.277a1.986 1.986 0 0 1 .44 3.106 2.989 2.989 0 0 1 1.56 2.617 2.922 2.922 0 0 1 -.523 1.661 1.989 1.989 0 1 1 -3.214 2.289 2.953 2.953 0 0 1 -4.163.35 2.82 2.82 0 0 0 -.1.7 2.99 2.99 0 0 0 5.221 2h.963a2.975 2.975 0 0 0 5.071.959 1.994 1.994 0 0 0 3.745-.959 1.966 1.966 0 0 0 -.071-.5 1.966 1.966 0 0 0 .071-.5z" fill="#f8664f"/><g><rect fill="#f8664f" height="6" rx="1" transform="matrix(.985 -.174 .174 .985 -1.37 5.293)" width="6" x="26.567" y="7.475"/><rect fill="#f8664f" height="6" rx="1" width="6" x="36" y="7"/><rect fill="#fcc" height="6" rx="1" transform="matrix(.815 -.579 .579 .815 .354 21.476)" width="6" x="30.817" y="7.183"/><rect fill="#fcc" height="6" rx="1" transform="matrix(.5 .866 -.866 .5 29.196 -33.105)" width="6" x="40.268" y="5.732"/><g fill="#f89c8d"><path d="m37.334 9.954a5 5 0 0 1 -6.088-1.624l-.8.567a1 1 0 0 0 -.235 1.394l2.317 3.261a1 1 0 0 0 1.395.235l3.26-2.317a1 1 0 0 0 .236-1.4z"/><path d="m46.706 8.688a4.982 4.982 0 0 1 -5.9-2l-.77.445a1 1 0 0 0 -.366 1.367l2 3.464a1 1 0 0 0 1.366.366l3.464-2a1 1 0 0 0 .366-1.366z"/></g></g><path d="m27 27h20v16h-20z" fill="#e6f0f0"/><path d="m41 27h-8l-2-8h12z" fill="#aeb6b7"/><path d="m27 13h20a0 0 0 0 1 0 0v3a3 3 0 0 1 -3 3h-14a3 3 0 0 1 -3-3v-3a0 0 0 0 1 0 0z" fill="#e6f0f0"/><path d="m51 17v16h-4v4h6a2 2 0 0 0 2-2v-18h4a2 2 0 0 0 2-2 2 2 0 0 0 -2-2h-4a4 4 0 0 0 -4 4z" fill="#f9e109"/><path d="m21 26h-4v18h4l6-1v-16z" fill="#e6f0f0"/><path d="m27 43a26.36 26.36 0 0 1 -3.473 13.078l-.527.922h8l2.051-6.154a4.162 4.162 0 0 1 3.949-2.846 4.162 4.162 0 0 1 3.949 2.846l2.051 6.154h8l-.527-.922a26.36 26.36 0 0 1 -3.473-13.078z" fill="#aeb6b7"/><path d="m3 55h16a0 0 0 0 1 0 0v2a4 4 0 0 1 -4 4h-8a4 4 0 0 1 -4-4v-2a0 0 0 0 1 0 0z" fill="#f9e109"/><path d="m55.184 13h-.184a4 4 0 0 0 -4 4v16h-4v4h6a2 2 0 0 0 2-2v-3a2 2 0 0 1 -2-2v-9a2 2 0 0 1 2-2v-2h4a2 2 0 0 0 2-2h-3a2.99 2.99 0 0 1 -2.816-2z" fill="#fcbc04"/><path d="m30 13h-3v3a3 3 0 0 0 3 3h14a3 3 0 0 0 3-3h-14a3 3 0 0 1 -3-3z" fill="#d0d8da"/><path d="m39 38a8 8 0 0 1 -8-8v-3h-4v16h20v-5z" fill="#d0d8da"/><path d="m49.794 54.794a9.307 9.307 0 0 1 -6.916-6.162 2 2 0 0 1 1.897-2.632h2.407a26.315 26.315 0 0 1 -.182-3h-20a26.36 26.36 0 0 1 -3.473 13.078l-.527.922h8l2.051-6.154a4.163 4.163 0 0 1 7.9 0l2.049 6.154h8l-.527-.922c-.241-.422-.463-.852-.679-1.284z" fill="#93999a"/><path d="m21 44 6-1v-16l-6-1z" fill="#aeb6b7"/><path d="m23 34.917v-8.584l-2-.333v18l6-1v-3.066a5.149 5.149 0 0 1 -4-5.017z" fill="#93999a"/><path d="m21 41.445a3.982 3.982 0 0 1 -2-3.445v-12h-2v18h4z" fill="#d0d8da"/><path d="m17 59h-8a4 4 0 0 1 -4-4h-2v2a4 4 0 0 0 4 4h8a3.994 3.994 0 0 0 3.64-2.36 3.961 3.961 0 0 1 -1.64.36z" fill="#fcbc04"/><path d="m43 39h-12a1 1 0 0 1 0-2h12a1 1 0 0 1 0 2z" fill="#aeb6b7"/><path d="m43 33h-12a1 1 0 0 1 0-2h12a1 1 0 0 1 0 2z" fill="#aeb6b7"/><g fill="#93999a"><path d="m30 38a1 1 0 0 0 1 1h12a1 1 0 0 0 1-1h-5a7.956 7.956 0 0 1 -3.87-1h-4.13a1 1 0 0 0 -1 1z"/><path d="m30 32a1 1 0 0 0 1 1h.587a7.909 7.909 0 0 1 -.518-2h-.069a1 1 0 0 0 -1 1z"/></g></g></g></g></svg>