<svg id="Capa_1" enable-background="new 0 0 512 512" height="512" viewBox="0 0 512 512" width="512" xmlns="http://www.w3.org/2000/svg" xmlns:xlink="http://www.w3.org/1999/xlink"><linearGradient id="SVGID_1_" gradientUnits="userSpaceOnUse" x1="256" x2="256" y1="512" y2="0"><stop offset="0" stop-color="#fd5900"/><stop offset="1" stop-color="#ffde00"/></linearGradient><linearGradient id="SVGID_2_" gradientUnits="userSpaceOnUse" x1="121" x2="121" y1="512" y2="300"><stop offset="0" stop-color="#ffe59a"/><stop offset="1" stop-color="#ffffd5"/></linearGradient><g><g><g><path d="m399.408 300h-68.408v-75c0-24.853-20.147-45-45-45h-30c-8.284 0-15 6.716-15 15v47.695c0 26.821-14.678 48.384-21.826 57.305h-38.174c-16.569 0-30 13.432-30 30v137c0 8.284 6.716 15 15 15h54.023c21.387 19.131 49.57 30 78.281 30h83.086c21.475 0 40.049-15.19 44.238-36.768l17.959-121.722c2.461-13.257-1.025-26.792-9.609-37.178-8.554-10.385-21.152-16.332-34.57-16.332zm107.93-188.174c-1.758-5.405-6.416-9.36-12.041-10.21l-31.582-4.746-14.297-28.579c-5.098-10.166-21.738-10.166-26.836 0l-14.297 28.579-31.582 4.746c-5.625.85-10.283 4.805-12.041 10.21s-.293 11.338 3.75 15.322l22.764 22.412-5.244 31.523c-.938 5.596 1.377 11.25 5.977 14.59 4.6 3.354 10.723 3.779 15.732 1.187l28.359-14.721 28.359 14.722c4.988 2.595 11.115 2.186 15.732-1.187 4.6-3.34 6.914-8.994 5.977-14.59l-5.244-31.523 22.764-22.412c4.043-3.985 5.508-9.918 3.75-15.323zm-296.162-22.932-5.244 31.523c-.938 5.596 1.377 11.25 5.977 14.59s10.693 3.794 15.732 1.187l28.359-14.722 28.359 14.722c4.988 2.595 11.115 2.186 15.732-1.187 4.6-3.34 6.914-8.994 5.977-14.59l-5.244-31.523 22.764-22.412c4.043-3.984 5.508-9.917 3.75-15.322s-6.416-9.36-12.041-10.21l-31.582-4.746-14.297-28.579c-5.098-10.166-21.738-10.166-26.836 0l-14.297 28.579-31.582 4.746c-5.625.85-10.283 4.805-12.041 10.21s-.293 11.338 3.75 15.322zm-75.879 12.722-31.582-4.746-14.297-28.579c-5.098-10.166-21.738-10.166-26.836 0l-14.297 28.579-31.582 4.746c-5.625.85-10.283 4.805-12.041 10.21s-.293 11.338 3.75 15.322l22.764 22.412-5.244 31.523c-.938 5.596 1.377 11.25 5.977 14.59 4.57 3.354 10.693 3.779 15.732 1.187l28.359-14.721 28.359 14.722c4.988 2.595 11.115 2.186 15.732-1.187 4.6-3.34 6.914-8.994 5.977-14.59l-5.244-31.523 22.764-22.412c4.043-3.984 5.508-9.917 3.75-15.322s-6.416-9.361-12.041-10.211z" fill="url(#SVGID_1_)"/></g></g><g><g><path d="m76 300c-8.284 0-15 6.716-15 15v182c0 8.284 6.716 15 15 15h90c8.284 0 15-6.716 15-15v-197z" fill="url(#SVGID_2_)"/></g></g></g></svg>